<mxfile host="app.diagrams.net" agent="Mozilla/5.0 (Windows NT 10.0; Win64; x64) AppleWebKit/537.36 (KHTML, like Gecko) Chrome/135.0.0.0 Safari/537.36" version="26.2.12">
  <diagram name="Page-1" id="AA5VKHUotwoOEeptTtgI">
    <mxGraphModel dx="1428" dy="819" grid="1" gridSize="10" guides="1" tooltips="1" connect="1" arrows="1" fold="1" page="1" pageScale="1" pageWidth="1200" pageHeight="1920" math="0" shadow="0">
      <root>
        <mxCell id="0" />
        <mxCell id="1" parent="0" />
        <mxCell id="OrfA8jUfgHVrKtCUoloW-1" value="" style="rounded=0;whiteSpace=wrap;html=1;" parent="1" vertex="1">
          <mxGeometry x="80" y="240" width="160" height="520" as="geometry" />
        </mxCell>
        <mxCell id="OrfA8jUfgHVrKtCUoloW-2" value="Sources" style="rounded=0;whiteSpace=wrap;html=1;fontSize=16;fontStyle=1" parent="1" vertex="1">
          <mxGeometry x="100" y="220" width="120" height="40" as="geometry" />
        </mxCell>
        <mxCell id="OrfA8jUfgHVrKtCUoloW-15" style="edgeStyle=orthogonalEdgeStyle;rounded=0;orthogonalLoop=1;jettySize=auto;html=1;entryX=0;entryY=0.25;entryDx=0;entryDy=0;" parent="1" source="OrfA8jUfgHVrKtCUoloW-3" target="OrfA8jUfgHVrKtCUoloW-7" edge="1">
          <mxGeometry relative="1" as="geometry" />
        </mxCell>
        <mxCell id="OrfA8jUfgHVrKtCUoloW-3" value="" style="image;aspect=fixed;html=1;points=[];align=center;fontSize=12;image=img/lib/azure2/general/Folder_Blank.svg;" parent="1" vertex="1">
          <mxGeometry x="121" y="370" width="69" height="56.00000000000001" as="geometry" />
        </mxCell>
        <mxCell id="OrfA8jUfgHVrKtCUoloW-23" style="edgeStyle=orthogonalEdgeStyle;rounded=0;orthogonalLoop=1;jettySize=auto;html=1;entryX=0;entryY=0.5;entryDx=0;entryDy=0;" parent="1" source="OrfA8jUfgHVrKtCUoloW-4" target="OrfA8jUfgHVrKtCUoloW-18" edge="1">
          <mxGeometry relative="1" as="geometry" />
        </mxCell>
        <mxCell id="OrfA8jUfgHVrKtCUoloW-4" value="" style="image;aspect=fixed;html=1;points=[];align=center;fontSize=12;image=img/lib/azure2/general/Folder_Blank.svg;" parent="1" vertex="1">
          <mxGeometry x="120.5" y="580" width="69" height="56.00000000000001" as="geometry" />
        </mxCell>
        <mxCell id="OrfA8jUfgHVrKtCUoloW-5" value="CRM" style="text;html=1;align=center;verticalAlign=middle;whiteSpace=wrap;rounded=0;fontStyle=1;fontSize=15;" parent="1" vertex="1">
          <mxGeometry x="125" y="426" width="60" height="30" as="geometry" />
        </mxCell>
        <mxCell id="OrfA8jUfgHVrKtCUoloW-6" value="ERP" style="text;html=1;align=center;verticalAlign=middle;whiteSpace=wrap;rounded=0;fontSize=15;fontStyle=1" parent="1" vertex="1">
          <mxGeometry x="125" y="636" width="60" height="30" as="geometry" />
        </mxCell>
        <mxCell id="OrfA8jUfgHVrKtCUoloW-7" value="" style="rounded=1;whiteSpace=wrap;html=1;fillColor=#ffe6cc;strokeColor=#d79b00;fillStyle=hatch;" parent="1" vertex="1">
          <mxGeometry x="320" y="280" width="200" height="480" as="geometry" />
        </mxCell>
        <mxCell id="OrfA8jUfgHVrKtCUoloW-8" value="&lt;font style=&quot;font-size: 20px;&quot;&gt;&lt;b&gt;Bronze Layer&lt;/b&gt;&lt;/font&gt;" style="rounded=1;whiteSpace=wrap;html=1;fillColor=#ffe6cc;strokeColor=#d79b00;" parent="1" vertex="1">
          <mxGeometry x="320" y="220" width="200" height="50" as="geometry" />
        </mxCell>
        <mxCell id="QjCeSR_Tf5l5Rg3o6ymq-17" style="edgeStyle=orthogonalEdgeStyle;rounded=0;orthogonalLoop=1;jettySize=auto;html=1;entryX=0;entryY=0.5;entryDx=0;entryDy=0;" parent="1" source="OrfA8jUfgHVrKtCUoloW-9" target="QjCeSR_Tf5l5Rg3o6ymq-3" edge="1">
          <mxGeometry relative="1" as="geometry" />
        </mxCell>
        <mxCell id="OrfA8jUfgHVrKtCUoloW-9" value="&lt;font style=&quot;font-size: 16px;&quot;&gt;crm_sales_details&lt;/font&gt;" style="rounded=1;whiteSpace=wrap;html=1;fillColor=#ffe6cc;strokeColor=#d79b00;" parent="1" vertex="1">
          <mxGeometry x="325" y="330" width="190" height="40" as="geometry" />
        </mxCell>
        <mxCell id="QjCeSR_Tf5l5Rg3o6ymq-18" style="edgeStyle=orthogonalEdgeStyle;rounded=0;orthogonalLoop=1;jettySize=auto;html=1;entryX=0;entryY=0.5;entryDx=0;entryDy=0;" parent="1" source="OrfA8jUfgHVrKtCUoloW-10" target="QjCeSR_Tf5l5Rg3o6ymq-4" edge="1">
          <mxGeometry relative="1" as="geometry" />
        </mxCell>
        <mxCell id="OrfA8jUfgHVrKtCUoloW-10" value="&lt;font style=&quot;font-size: 16px;&quot;&gt;crm_cust_info&lt;/font&gt;" style="rounded=1;whiteSpace=wrap;html=1;fillColor=#ffe6cc;strokeColor=#d79b00;" parent="1" vertex="1">
          <mxGeometry x="325" y="380" width="190" height="40" as="geometry" />
        </mxCell>
        <mxCell id="QjCeSR_Tf5l5Rg3o6ymq-19" style="edgeStyle=orthogonalEdgeStyle;rounded=0;orthogonalLoop=1;jettySize=auto;html=1;entryX=0;entryY=0.5;entryDx=0;entryDy=0;" parent="1" source="OrfA8jUfgHVrKtCUoloW-11" target="QjCeSR_Tf5l5Rg3o6ymq-5" edge="1">
          <mxGeometry relative="1" as="geometry" />
        </mxCell>
        <mxCell id="OrfA8jUfgHVrKtCUoloW-11" value="&lt;font style=&quot;font-size: 16px;&quot;&gt;crm_prd_info&lt;/font&gt;" style="rounded=1;whiteSpace=wrap;html=1;fillColor=#ffe6cc;strokeColor=#d79b00;" parent="1" vertex="1">
          <mxGeometry x="325" y="430" width="190" height="40" as="geometry" />
        </mxCell>
        <mxCell id="OrfA8jUfgHVrKtCUoloW-16" style="edgeStyle=orthogonalEdgeStyle;rounded=0;orthogonalLoop=1;jettySize=auto;html=1;entryX=0.02;entryY=0.142;entryDx=0;entryDy=0;entryPerimeter=0;" parent="1" source="OrfA8jUfgHVrKtCUoloW-3" target="OrfA8jUfgHVrKtCUoloW-7" edge="1">
          <mxGeometry relative="1" as="geometry" />
        </mxCell>
        <mxCell id="OrfA8jUfgHVrKtCUoloW-17" style="edgeStyle=orthogonalEdgeStyle;rounded=0;orthogonalLoop=1;jettySize=auto;html=1;entryX=0.025;entryY=0.358;entryDx=0;entryDy=0;entryPerimeter=0;" parent="1" source="OrfA8jUfgHVrKtCUoloW-3" target="OrfA8jUfgHVrKtCUoloW-7" edge="1">
          <mxGeometry relative="1" as="geometry" />
        </mxCell>
        <mxCell id="QjCeSR_Tf5l5Rg3o6ymq-20" style="edgeStyle=orthogonalEdgeStyle;rounded=0;orthogonalLoop=1;jettySize=auto;html=1;entryX=0;entryY=0.5;entryDx=0;entryDy=0;" parent="1" source="OrfA8jUfgHVrKtCUoloW-18" target="QjCeSR_Tf5l5Rg3o6ymq-6" edge="1">
          <mxGeometry relative="1" as="geometry" />
        </mxCell>
        <mxCell id="OrfA8jUfgHVrKtCUoloW-18" value="&lt;font style=&quot;font-size: 16px;&quot;&gt;erp_cust_az12&lt;/font&gt;" style="rounded=1;whiteSpace=wrap;html=1;fillColor=#ffe6cc;strokeColor=#d79b00;" parent="1" vertex="1">
          <mxGeometry x="325" y="540" width="190" height="40" as="geometry" />
        </mxCell>
        <mxCell id="QjCeSR_Tf5l5Rg3o6ymq-21" style="edgeStyle=orthogonalEdgeStyle;rounded=0;orthogonalLoop=1;jettySize=auto;html=1;entryX=0;entryY=0.5;entryDx=0;entryDy=0;" parent="1" source="OrfA8jUfgHVrKtCUoloW-19" target="QjCeSR_Tf5l5Rg3o6ymq-7" edge="1">
          <mxGeometry relative="1" as="geometry" />
        </mxCell>
        <mxCell id="OrfA8jUfgHVrKtCUoloW-19" value="&lt;font style=&quot;font-size: 16px;&quot;&gt;erp_loc_a101&lt;/font&gt;" style="rounded=1;whiteSpace=wrap;html=1;fillColor=#ffe6cc;strokeColor=#d79b00;" parent="1" vertex="1">
          <mxGeometry x="325" y="590" width="190" height="40" as="geometry" />
        </mxCell>
        <mxCell id="QjCeSR_Tf5l5Rg3o6ymq-22" style="edgeStyle=orthogonalEdgeStyle;rounded=0;orthogonalLoop=1;jettySize=auto;html=1;entryX=0;entryY=0.5;entryDx=0;entryDy=0;" parent="1" source="OrfA8jUfgHVrKtCUoloW-20" target="QjCeSR_Tf5l5Rg3o6ymq-8" edge="1">
          <mxGeometry relative="1" as="geometry" />
        </mxCell>
        <mxCell id="OrfA8jUfgHVrKtCUoloW-20" value="&lt;font style=&quot;font-size: 16px;&quot;&gt;erp_px_gtv2&lt;/font&gt;" style="rounded=1;whiteSpace=wrap;html=1;fillColor=#ffe6cc;strokeColor=#d79b00;" parent="1" vertex="1">
          <mxGeometry x="325" y="640" width="190" height="40" as="geometry" />
        </mxCell>
        <mxCell id="OrfA8jUfgHVrKtCUoloW-22" style="edgeStyle=orthogonalEdgeStyle;rounded=0;orthogonalLoop=1;jettySize=auto;html=1;entryX=-0.005;entryY=0.683;entryDx=0;entryDy=0;entryPerimeter=0;" parent="1" source="OrfA8jUfgHVrKtCUoloW-4" target="OrfA8jUfgHVrKtCUoloW-7" edge="1">
          <mxGeometry relative="1" as="geometry" />
        </mxCell>
        <mxCell id="OrfA8jUfgHVrKtCUoloW-25" style="edgeStyle=orthogonalEdgeStyle;rounded=0;orthogonalLoop=1;jettySize=auto;html=1;entryX=0.025;entryY=0.79;entryDx=0;entryDy=0;entryPerimeter=0;" parent="1" source="OrfA8jUfgHVrKtCUoloW-4" target="OrfA8jUfgHVrKtCUoloW-7" edge="1">
          <mxGeometry relative="1" as="geometry">
            <Array as="points">
              <mxPoint x="260" y="608" />
              <mxPoint x="260" y="659" />
            </Array>
          </mxGeometry>
        </mxCell>
        <mxCell id="QjCeSR_Tf5l5Rg3o6ymq-1" value="" style="rounded=1;whiteSpace=wrap;html=1;fillColor=#f5f5f5;strokeColor=#666666;fillStyle=hatch;fontColor=#333333;" parent="1" vertex="1">
          <mxGeometry x="640" y="280" width="200" height="480" as="geometry" />
        </mxCell>
        <mxCell id="QjCeSR_Tf5l5Rg3o6ymq-2" value="&lt;font style=&quot;font-size: 20px;&quot;&gt;&lt;b&gt;Silver Layer&lt;/b&gt;&lt;/font&gt;" style="rounded=1;whiteSpace=wrap;html=1;fillColor=#f5f5f5;strokeColor=#666666;fontColor=#333333;" parent="1" vertex="1">
          <mxGeometry x="640" y="220" width="200" height="50" as="geometry" />
        </mxCell>
        <mxCell id="QjCeSR_Tf5l5Rg3o6ymq-3" value="&lt;font style=&quot;font-size: 16px;&quot;&gt;crm_sales_details&lt;/font&gt;" style="rounded=1;whiteSpace=wrap;html=1;fillColor=#f5f5f5;strokeColor=#666666;fontColor=#333333;" parent="1" vertex="1">
          <mxGeometry x="645" y="330" width="190" height="40" as="geometry" />
        </mxCell>
        <mxCell id="QjCeSR_Tf5l5Rg3o6ymq-4" value="&lt;font style=&quot;font-size: 16px;&quot;&gt;crm_cust_info&lt;/font&gt;" style="rounded=1;whiteSpace=wrap;html=1;fillColor=#f5f5f5;strokeColor=#666666;fontColor=#333333;" parent="1" vertex="1">
          <mxGeometry x="645" y="380" width="190" height="40" as="geometry" />
        </mxCell>
        <mxCell id="QjCeSR_Tf5l5Rg3o6ymq-5" value="&lt;font style=&quot;font-size: 16px;&quot;&gt;crm_prd_info&lt;/font&gt;" style="rounded=1;whiteSpace=wrap;html=1;fillColor=#f5f5f5;strokeColor=#666666;fontColor=#333333;" parent="1" vertex="1">
          <mxGeometry x="645" y="430" width="190" height="40" as="geometry" />
        </mxCell>
        <mxCell id="QjCeSR_Tf5l5Rg3o6ymq-6" value="&lt;font style=&quot;font-size: 16px;&quot;&gt;erp_cust_az12&lt;/font&gt;" style="rounded=1;whiteSpace=wrap;html=1;fillColor=#f5f5f5;strokeColor=#666666;fontColor=#333333;" parent="1" vertex="1">
          <mxGeometry x="645" y="540" width="190" height="40" as="geometry" />
        </mxCell>
        <mxCell id="QjCeSR_Tf5l5Rg3o6ymq-7" value="&lt;font style=&quot;font-size: 16px;&quot;&gt;erp_loc_a101&lt;/font&gt;" style="rounded=1;whiteSpace=wrap;html=1;fillColor=#f5f5f5;strokeColor=#666666;fontColor=#333333;" parent="1" vertex="1">
          <mxGeometry x="645" y="590" width="190" height="40" as="geometry" />
        </mxCell>
        <mxCell id="QjCeSR_Tf5l5Rg3o6ymq-8" value="&lt;font style=&quot;font-size: 16px;&quot;&gt;erp_px_gtv2&lt;/font&gt;" style="rounded=1;whiteSpace=wrap;html=1;fillColor=#f5f5f5;strokeColor=#666666;fontColor=#333333;" parent="1" vertex="1">
          <mxGeometry x="645" y="640" width="190" height="40" as="geometry" />
        </mxCell>
        <mxCell id="QjCeSR_Tf5l5Rg3o6ymq-9" value="" style="rounded=1;whiteSpace=wrap;html=1;fillColor=#fff2cc;strokeColor=#d6b656;fillStyle=hatch;" parent="1" vertex="1">
          <mxGeometry x="960" y="280" width="200" height="480" as="geometry" />
        </mxCell>
        <mxCell id="QjCeSR_Tf5l5Rg3o6ymq-10" value="&lt;font style=&quot;font-size: 20px;&quot;&gt;&lt;b&gt;Gold Layer&lt;/b&gt;&lt;/font&gt;" style="rounded=1;whiteSpace=wrap;html=1;fillColor=#fff2cc;strokeColor=#d6b656;" parent="1" vertex="1">
          <mxGeometry x="960" y="220" width="200" height="50" as="geometry" />
        </mxCell>
        <mxCell id="QjCeSR_Tf5l5Rg3o6ymq-11" value="&lt;font style=&quot;font-size: 16px;&quot;&gt;fact_sales&lt;/font&gt;" style="rounded=1;whiteSpace=wrap;html=1;fillColor=#fff2cc;strokeColor=#d6b656;" parent="1" vertex="1">
          <mxGeometry x="965" y="330" width="190" height="40" as="geometry" />
        </mxCell>
        <mxCell id="QjCeSR_Tf5l5Rg3o6ymq-12" value="&lt;font style=&quot;font-size: 16px;&quot;&gt;dim_customers&lt;/font&gt;" style="rounded=1;whiteSpace=wrap;html=1;fillColor=#fff2cc;strokeColor=#d6b656;" parent="1" vertex="1">
          <mxGeometry x="965" y="480" width="190" height="40" as="geometry" />
        </mxCell>
        <mxCell id="QjCeSR_Tf5l5Rg3o6ymq-13" value="&lt;font style=&quot;font-size: 16px;&quot;&gt;dim_products&lt;/font&gt;" style="rounded=1;whiteSpace=wrap;html=1;fillColor=#fff2cc;strokeColor=#d6b656;" parent="1" vertex="1">
          <mxGeometry x="965" y="610" width="190" height="40" as="geometry" />
        </mxCell>
        <mxCell id="jIFMAwsrkFg7udsuEtpf-1" value="" style="endArrow=classic;html=1;rounded=0;entryX=0;entryY=0.5;entryDx=0;entryDy=0;" edge="1" parent="1" target="QjCeSR_Tf5l5Rg3o6ymq-11">
          <mxGeometry width="50" height="50" relative="1" as="geometry">
            <mxPoint x="835" y="350" as="sourcePoint" />
            <mxPoint x="885" y="300" as="targetPoint" />
          </mxGeometry>
        </mxCell>
        <mxCell id="jIFMAwsrkFg7udsuEtpf-2" value="" style="endArrow=classic;html=1;rounded=0;entryX=0;entryY=0.5;entryDx=0;entryDy=0;" edge="1" parent="1" target="QjCeSR_Tf5l5Rg3o6ymq-12">
          <mxGeometry width="50" height="50" relative="1" as="geometry">
            <mxPoint x="835" y="410" as="sourcePoint" />
            <mxPoint x="885" y="360" as="targetPoint" />
          </mxGeometry>
        </mxCell>
        <mxCell id="jIFMAwsrkFg7udsuEtpf-3" value="" style="endArrow=classic;html=1;rounded=0;" edge="1" parent="1">
          <mxGeometry width="50" height="50" relative="1" as="geometry">
            <mxPoint x="835" y="560" as="sourcePoint" />
            <mxPoint x="960" y="500" as="targetPoint" />
          </mxGeometry>
        </mxCell>
        <mxCell id="jIFMAwsrkFg7udsuEtpf-4" value="" style="endArrow=classic;html=1;rounded=0;entryX=0;entryY=0.5;entryDx=0;entryDy=0;" edge="1" parent="1" target="QjCeSR_Tf5l5Rg3o6ymq-12">
          <mxGeometry width="50" height="50" relative="1" as="geometry">
            <mxPoint x="835" y="610" as="sourcePoint" />
            <mxPoint x="885" y="560" as="targetPoint" />
          </mxGeometry>
        </mxCell>
        <mxCell id="jIFMAwsrkFg7udsuEtpf-5" value="" style="endArrow=classic;html=1;rounded=0;exitX=1;exitY=0.5;exitDx=0;exitDy=0;entryX=0;entryY=0.5;entryDx=0;entryDy=0;" edge="1" parent="1" source="QjCeSR_Tf5l5Rg3o6ymq-5" target="QjCeSR_Tf5l5Rg3o6ymq-13">
          <mxGeometry width="50" height="50" relative="1" as="geometry">
            <mxPoint x="890" y="710" as="sourcePoint" />
            <mxPoint x="940" y="660" as="targetPoint" />
          </mxGeometry>
        </mxCell>
        <mxCell id="jIFMAwsrkFg7udsuEtpf-6" value="" style="endArrow=classic;html=1;rounded=0;entryX=0.02;entryY=0.731;entryDx=0;entryDy=0;entryPerimeter=0;" edge="1" parent="1" target="QjCeSR_Tf5l5Rg3o6ymq-9">
          <mxGeometry width="50" height="50" relative="1" as="geometry">
            <mxPoint x="835" y="666" as="sourcePoint" />
            <mxPoint x="885" y="616" as="targetPoint" />
          </mxGeometry>
        </mxCell>
        <mxCell id="jIFMAwsrkFg7udsuEtpf-7" value="&lt;h1 style=&quot;margin-top: 0px;&quot;&gt;&lt;font style=&quot;font-size: 30px;&quot;&gt;Data Flow&lt;/font&gt;&lt;/h1&gt;" style="text;html=1;whiteSpace=wrap;overflow=hidden;rounded=0;" vertex="1" parent="1">
          <mxGeometry x="510" y="140" width="180" height="50" as="geometry" />
        </mxCell>
      </root>
    </mxGraphModel>
  </diagram>
</mxfile>
